<mxfile host="app.diagrams.net" modified="2020-07-22T10:21:57.186Z" agent="5.0 (Macintosh; Intel Mac OS X 10_15_5) AppleWebKit/537.36 (KHTML, like Gecko) Chrome/83.0.4103.106 Safari/537.36" etag="VV8dfNvtE9IhnxRru3oV" version="13.5.0" type="github">
  <diagram id="C5RBs43oDa-KdzZeNtuy" name="Page-1">
    <mxGraphModel dx="1113" dy="721" grid="1" gridSize="10" guides="1" tooltips="1" connect="1" arrows="1" fold="1" page="1" pageScale="1" pageWidth="827" pageHeight="1169" math="0" shadow="0">
      <root>
        <mxCell id="WIyWlLk6GJQsqaUBKTNV-0" />
        <mxCell id="WIyWlLk6GJQsqaUBKTNV-1" parent="WIyWlLk6GJQsqaUBKTNV-0" />
        <mxCell id="ynJpLnisetD2wEdVZjfM-9" style="edgeStyle=orthogonalEdgeStyle;rounded=0;orthogonalLoop=1;jettySize=auto;html=1;entryX=0.5;entryY=0;entryDx=0;entryDy=0;" edge="1" parent="WIyWlLk6GJQsqaUBKTNV-1" source="WIyWlLk6GJQsqaUBKTNV-3" target="ynJpLnisetD2wEdVZjfM-1">
          <mxGeometry relative="1" as="geometry" />
        </mxCell>
        <mxCell id="WIyWlLk6GJQsqaUBKTNV-3" value="Headline news Text" style="rounded=1;whiteSpace=wrap;html=1;fontSize=12;glass=0;strokeWidth=1;shadow=0;" parent="WIyWlLk6GJQsqaUBKTNV-1" vertex="1">
          <mxGeometry x="155" y="10" width="120" height="30" as="geometry" />
        </mxCell>
        <mxCell id="WIyWlLk6GJQsqaUBKTNV-8" value="Training Data" style="rounded=0;html=1;jettySize=auto;orthogonalLoop=1;fontSize=11;endArrow=block;endFill=0;endSize=8;strokeWidth=1;shadow=0;labelBackgroundColor=none;edgeStyle=orthogonalEdgeStyle;align=left;" parent="WIyWlLk6GJQsqaUBKTNV-1" source="WIyWlLk6GJQsqaUBKTNV-10" edge="1">
          <mxGeometry x="0.3333" y="20" relative="1" as="geometry">
            <mxPoint as="offset" />
            <mxPoint x="200" y="570" as="targetPoint" />
            <Array as="points">
              <mxPoint x="200" y="510" />
            </Array>
          </mxGeometry>
        </mxCell>
        <mxCell id="ynJpLnisetD2wEdVZjfM-30" value="Testing Data" style="edgeStyle=orthogonalEdgeStyle;rounded=0;orthogonalLoop=1;jettySize=auto;html=1;align=left;" edge="1" parent="WIyWlLk6GJQsqaUBKTNV-1" source="WIyWlLk6GJQsqaUBKTNV-10" target="ynJpLnisetD2wEdVZjfM-35">
          <mxGeometry relative="1" as="geometry">
            <mxPoint x="385" y="650" as="targetPoint" />
            <Array as="points" />
          </mxGeometry>
        </mxCell>
        <mxCell id="WIyWlLk6GJQsqaUBKTNV-10" value="Train/Test&lt;br&gt;Partition" style="rhombus;whiteSpace=wrap;html=1;shadow=0;fontFamily=Helvetica;fontSize=12;align=center;strokeWidth=1;spacing=6;spacingTop=-4;" parent="WIyWlLk6GJQsqaUBKTNV-1" vertex="1">
          <mxGeometry x="302.5" y="455" width="165" height="105" as="geometry" />
        </mxCell>
        <mxCell id="ynJpLnisetD2wEdVZjfM-12" style="edgeStyle=orthogonalEdgeStyle;rounded=0;orthogonalLoop=1;jettySize=auto;html=1;" edge="1" parent="WIyWlLk6GJQsqaUBKTNV-1" source="ynJpLnisetD2wEdVZjfM-1" target="ynJpLnisetD2wEdVZjfM-3">
          <mxGeometry relative="1" as="geometry" />
        </mxCell>
        <mxCell id="ynJpLnisetD2wEdVZjfM-1" value="Web scraping" style="rounded=1;whiteSpace=wrap;html=1;" vertex="1" parent="WIyWlLk6GJQsqaUBKTNV-1">
          <mxGeometry x="155" y="60" width="120" height="30" as="geometry" />
        </mxCell>
        <mxCell id="ynJpLnisetD2wEdVZjfM-11" style="edgeStyle=orthogonalEdgeStyle;rounded=0;orthogonalLoop=1;jettySize=auto;html=1;exitX=0.5;exitY=1;exitDx=0;exitDy=0;entryX=0.5;entryY=0;entryDx=0;entryDy=0;" edge="1" parent="WIyWlLk6GJQsqaUBKTNV-1" source="ynJpLnisetD2wEdVZjfM-3" target="ynJpLnisetD2wEdVZjfM-10">
          <mxGeometry relative="1" as="geometry" />
        </mxCell>
        <mxCell id="ynJpLnisetD2wEdVZjfM-3" value="Word Cleaning&lt;br&gt;and Filtering" style="rounded=1;whiteSpace=wrap;html=1;" vertex="1" parent="WIyWlLk6GJQsqaUBKTNV-1">
          <mxGeometry x="155" y="110" width="120" height="30" as="geometry" />
        </mxCell>
        <mxCell id="ynJpLnisetD2wEdVZjfM-16" value="" style="edgeStyle=orthogonalEdgeStyle;rounded=0;orthogonalLoop=1;jettySize=auto;html=1;" edge="1" parent="WIyWlLk6GJQsqaUBKTNV-1" source="ynJpLnisetD2wEdVZjfM-10" target="ynJpLnisetD2wEdVZjfM-15">
          <mxGeometry relative="1" as="geometry" />
        </mxCell>
        <mxCell id="ynJpLnisetD2wEdVZjfM-10" value="Selection important words or phases" style="rounded=1;whiteSpace=wrap;html=1;" vertex="1" parent="WIyWlLk6GJQsqaUBKTNV-1">
          <mxGeometry x="155" y="160" width="120" height="30" as="geometry" />
        </mxCell>
        <mxCell id="ynJpLnisetD2wEdVZjfM-14" value="TF-IDF Calculation" style="shape=process;whiteSpace=wrap;html=1;backgroundOutline=1;" vertex="1" parent="WIyWlLk6GJQsqaUBKTNV-1">
          <mxGeometry x="130" y="210" width="170" height="30" as="geometry" />
        </mxCell>
        <mxCell id="ynJpLnisetD2wEdVZjfM-23" style="edgeStyle=orthogonalEdgeStyle;rounded=0;orthogonalLoop=1;jettySize=auto;html=1;exitX=0.5;exitY=1;exitDx=0;exitDy=0;" edge="1" parent="WIyWlLk6GJQsqaUBKTNV-1" source="ynJpLnisetD2wEdVZjfM-15" target="ynJpLnisetD2wEdVZjfM-17">
          <mxGeometry relative="1" as="geometry" />
        </mxCell>
        <mxCell id="ynJpLnisetD2wEdVZjfM-15" value="Opinion Scoring" style="shape=process;whiteSpace=wrap;html=1;backgroundOutline=1;" vertex="1" parent="WIyWlLk6GJQsqaUBKTNV-1">
          <mxGeometry x="130" y="260" width="170" height="30" as="geometry" />
        </mxCell>
        <mxCell id="ynJpLnisetD2wEdVZjfM-27" style="edgeStyle=orthogonalEdgeStyle;rounded=0;orthogonalLoop=1;jettySize=auto;html=1;entryX=0.5;entryY=0;entryDx=0;entryDy=0;" edge="1" parent="WIyWlLk6GJQsqaUBKTNV-1" source="ynJpLnisetD2wEdVZjfM-17" target="WIyWlLk6GJQsqaUBKTNV-10">
          <mxGeometry relative="1" as="geometry" />
        </mxCell>
        <mxCell id="ynJpLnisetD2wEdVZjfM-17" value="Data Collection" style="rounded=1;whiteSpace=wrap;html=1;" vertex="1" parent="WIyWlLk6GJQsqaUBKTNV-1">
          <mxGeometry x="180" y="350" width="410" height="50" as="geometry" />
        </mxCell>
        <mxCell id="ynJpLnisetD2wEdVZjfM-24" style="edgeStyle=orthogonalEdgeStyle;rounded=0;orthogonalLoop=1;jettySize=auto;html=1;" edge="1" parent="WIyWlLk6GJQsqaUBKTNV-1" source="ynJpLnisetD2wEdVZjfM-19" target="ynJpLnisetD2wEdVZjfM-21">
          <mxGeometry relative="1" as="geometry" />
        </mxCell>
        <mxCell id="ynJpLnisetD2wEdVZjfM-19" value="Financial Data" style="rounded=1;whiteSpace=wrap;html=1;fontSize=12;glass=0;strokeWidth=1;shadow=0;" vertex="1" parent="WIyWlLk6GJQsqaUBKTNV-1">
          <mxGeometry x="520" y="10" width="120" height="30" as="geometry" />
        </mxCell>
        <mxCell id="ynJpLnisetD2wEdVZjfM-25" style="edgeStyle=orthogonalEdgeStyle;rounded=0;orthogonalLoop=1;jettySize=auto;html=1;" edge="1" parent="WIyWlLk6GJQsqaUBKTNV-1" source="ynJpLnisetD2wEdVZjfM-21" target="ynJpLnisetD2wEdVZjfM-22">
          <mxGeometry relative="1" as="geometry" />
        </mxCell>
        <mxCell id="ynJpLnisetD2wEdVZjfM-21" value="Variable Preprocessing" style="rounded=1;whiteSpace=wrap;html=1;fontSize=12;glass=0;strokeWidth=1;shadow=0;" vertex="1" parent="WIyWlLk6GJQsqaUBKTNV-1">
          <mxGeometry x="520" y="110" width="120" height="30" as="geometry" />
        </mxCell>
        <mxCell id="ynJpLnisetD2wEdVZjfM-26" style="edgeStyle=orthogonalEdgeStyle;rounded=0;orthogonalLoop=1;jettySize=auto;html=1;entryX=0.5;entryY=0;entryDx=0;entryDy=0;" edge="1" parent="WIyWlLk6GJQsqaUBKTNV-1" source="ynJpLnisetD2wEdVZjfM-22" target="ynJpLnisetD2wEdVZjfM-17">
          <mxGeometry relative="1" as="geometry">
            <Array as="points">
              <mxPoint x="580" y="320" />
              <mxPoint x="385" y="320" />
            </Array>
          </mxGeometry>
        </mxCell>
        <mxCell id="ynJpLnisetD2wEdVZjfM-22" value="Correlation Analysis" style="rounded=1;whiteSpace=wrap;html=1;fontSize=12;glass=0;strokeWidth=1;shadow=0;" vertex="1" parent="WIyWlLk6GJQsqaUBKTNV-1">
          <mxGeometry x="520" y="210" width="120" height="30" as="geometry" />
        </mxCell>
        <mxCell id="ynJpLnisetD2wEdVZjfM-32" style="edgeStyle=orthogonalEdgeStyle;rounded=0;orthogonalLoop=1;jettySize=auto;html=1;" edge="1" parent="WIyWlLk6GJQsqaUBKTNV-1" source="ynJpLnisetD2wEdVZjfM-29" target="ynJpLnisetD2wEdVZjfM-31">
          <mxGeometry relative="1" as="geometry" />
        </mxCell>
        <mxCell id="ynJpLnisetD2wEdVZjfM-29" value="Support Vector Regression" style="shape=process;whiteSpace=wrap;html=1;backgroundOutline=1;" vertex="1" parent="WIyWlLk6GJQsqaUBKTNV-1">
          <mxGeometry x="120" y="540" width="170" height="30" as="geometry" />
        </mxCell>
        <mxCell id="ynJpLnisetD2wEdVZjfM-34" style="edgeStyle=orthogonalEdgeStyle;rounded=0;orthogonalLoop=1;jettySize=auto;html=1;entryX=0.5;entryY=0;entryDx=0;entryDy=0;" edge="1" parent="WIyWlLk6GJQsqaUBKTNV-1" source="ynJpLnisetD2wEdVZjfM-31" target="ynJpLnisetD2wEdVZjfM-33">
          <mxGeometry relative="1" as="geometry" />
        </mxCell>
        <mxCell id="ynJpLnisetD2wEdVZjfM-31" value="Hyper Parameters" style="shape=process;whiteSpace=wrap;html=1;backgroundOutline=1;" vertex="1" parent="WIyWlLk6GJQsqaUBKTNV-1">
          <mxGeometry x="120" y="610" width="170" height="30" as="geometry" />
        </mxCell>
        <mxCell id="ynJpLnisetD2wEdVZjfM-37" style="edgeStyle=orthogonalEdgeStyle;rounded=0;orthogonalLoop=1;jettySize=auto;html=1;" edge="1" parent="WIyWlLk6GJQsqaUBKTNV-1" source="ynJpLnisetD2wEdVZjfM-33" target="ynJpLnisetD2wEdVZjfM-35">
          <mxGeometry relative="1" as="geometry" />
        </mxCell>
        <mxCell id="ynJpLnisetD2wEdVZjfM-33" value="Prediction Result" style="shape=process;whiteSpace=wrap;html=1;backgroundOutline=1;" vertex="1" parent="WIyWlLk6GJQsqaUBKTNV-1">
          <mxGeometry x="120" y="680" width="170" height="30" as="geometry" />
        </mxCell>
        <mxCell id="ynJpLnisetD2wEdVZjfM-38" style="edgeStyle=orthogonalEdgeStyle;rounded=0;orthogonalLoop=1;jettySize=auto;html=1;" edge="1" parent="WIyWlLk6GJQsqaUBKTNV-1" source="ynJpLnisetD2wEdVZjfM-35">
          <mxGeometry relative="1" as="geometry">
            <mxPoint x="385" y="770" as="targetPoint" />
          </mxGeometry>
        </mxCell>
        <mxCell id="ynJpLnisetD2wEdVZjfM-35" value="Validation" style="rounded=0;whiteSpace=wrap;html=1;" vertex="1" parent="WIyWlLk6GJQsqaUBKTNV-1">
          <mxGeometry x="325" y="665" width="120" height="60" as="geometry" />
        </mxCell>
        <mxCell id="ynJpLnisetD2wEdVZjfM-39" value="Summary the result" style="rounded=0;whiteSpace=wrap;html=1;" vertex="1" parent="WIyWlLk6GJQsqaUBKTNV-1">
          <mxGeometry x="271.25" y="770" width="227.5" height="40" as="geometry" />
        </mxCell>
      </root>
    </mxGraphModel>
  </diagram>
</mxfile>
